<svg id="Calque_1" data-name="Calque 1" xmlns="http://www.w3.org/2000/svg" viewBox="0 0 425.94 45.17"><defs><style>.cls-1{fill:#ed1e24;}.cls-2{fill:#a7a9ac;}</style></defs><path class="cls-1" d="M85.48,94.44h3.9v4.41c1.72-2.58,4.05-5,8.45-5a8.88,8.88,0,0,1,8.39,5.21,10.42,10.42,0,0,1,9.21-5.21c6,0,9.71,4,9.71,10.52V120.6h-3.9V105.32c0-5.06-2.53-7.89-6.77-7.89-4,0-7.19,2.93-7.19,8.09V120.6h-3.89V105.22c0-4.91-2.58-7.79-6.73-7.79s-7.28,3.44-7.28,8.24V120.6h-3.9Z" transform="translate(-85.48 -83.67)"/><path class="cls-1" d="M149.87,94.44H154l-11,27c-2.23,5.42-4.76,7.39-8.7,7.39a11.89,11.89,0,0,1-5.57-1.32l1.32-3.08a8.11,8.11,0,0,0,4.09,1c2.33,0,3.8-1.21,5.36-4.91l-11.88-26H132l9.51,21.8Z" transform="translate(-85.48 -83.67)"/><path class="cls-2" d="M157.16,93.89h6.12v4.45c2-2.78,4.75-5,9.1-5,6.27,0,12.39,5,12.39,13.86v.1c0,8.85-6.07,13.86-12.39,13.86a10.89,10.89,0,0,1-9.1-4.7v12.24h-6.12Zm21.39,13.4v-.1c0-5.16-3.49-8.55-7.64-8.55s-7.78,3.44-7.78,8.55v.1c0,5.11,3.64,8.55,7.78,8.55S178.55,112.55,178.55,107.29Z" transform="translate(-85.48 -83.67)"/><path class="cls-2" d="M187.1,107.39v-.1a14.24,14.24,0,0,1,28.48-.1v.1a14,14,0,0,1-14.32,13.91A13.81,13.81,0,0,1,187.1,107.39Zm22.36,0v-.1c0-4.7-3.39-8.6-8.2-8.6s-8,3.85-8,8.5v.1a8.23,8.23,0,0,0,8.14,8.55C206.32,115.84,209.46,112,209.46,107.39Z" transform="translate(-85.48 -83.67)"/><path class="cls-2" d="M217.09,117.1l2.74-4.14a15.12,15.12,0,0,0,8.75,3.28c2.63,0,4.14-1.11,4.14-2.88v-.1c0-2.07-2.83-2.78-6-3.74-3.95-1.11-8.35-2.73-8.35-7.84v-.1c0-5.06,4.2-8.15,9.51-8.15a18.51,18.51,0,0,1,9.81,3l-2.43,4.35a15.48,15.48,0,0,0-7.53-2.53c-2.38,0-3.75,1.11-3.75,2.63v.1c0,2,2.89,2.78,6,3.79,3.9,1.22,8.3,3,8.3,7.79v.1c0,5.62-4.35,8.4-9.92,8.4A18.71,18.71,0,0,1,217.09,117.1Z" transform="translate(-85.48 -83.67)"/><path class="cls-2" d="M242.18,84h6.58v5.82h-6.58Zm.26,9.92h6.12V120.6h-6.12Z" transform="translate(-85.48 -83.67)"/><path class="cls-2" d="M255.28,113.21V99.15h-3.39V93.89h3.39V86.55h6.12v7.34h7.19v5.26H261.4v13.1c0,2.38,1.22,3.34,3.29,3.34a8.27,8.27,0,0,0,3.79-.91v5a10.54,10.54,0,0,1-5.51,1.37C258.47,121.05,255.28,119.08,255.28,113.21Z" transform="translate(-85.48 -83.67)"/><path class="cls-2" d="M272.38,84H279v5.82h-6.57Zm.25,9.92h6.12V120.6h-6.12Z" transform="translate(-85.48 -83.67)"/><path class="cls-2" d="M281.69,93.89h6.57l7.18,19.62,7.24-19.62h6.42L298.18,120.8h-5.52Z" transform="translate(-85.48 -83.67)"/><path class="cls-2" d="M308.8,107.34v-.1c0-7.64,5.41-13.91,13.05-13.91,8.49,0,12.79,6.68,12.79,14.37,0,.55-.05,1.11-.1,1.72H314.92a7.44,7.44,0,0,0,7.68,6.77,9.72,9.72,0,0,0,7.24-3.18l3.59,3.18a13.5,13.5,0,0,1-10.93,5C314.77,121.2,308.8,115.59,308.8,107.34Zm19.77-2c-.4-4-2.73-7-6.77-7-3.75,0-6.38,2.88-6.93,7Z" transform="translate(-85.48 -83.67)"/><path class="cls-1" d="M342.69,115.59v5h-3.9V83.67h3.9v16c2.12-3.14,5.21-5.82,10-5.82,6.27,0,12.49,5,12.49,13.55v.1c0,8.55-6.17,13.61-12.49,13.61A11.78,11.78,0,0,1,342.69,115.59Zm18.51-8v-.1c0-6.18-4.25-10.12-9.21-10.12a9.76,9.76,0,0,0-9.46,10.06v.1c0,6.08,4.61,10.12,9.46,10.12C357.05,117.66,361.2,113.92,361.2,107.6Z" transform="translate(-85.48 -83.67)"/><path class="cls-1" d="M368.23,107.65v-.11a13.63,13.63,0,0,1,27.26-.1v.1a13.58,13.58,0,0,1-13.71,13.66A13.39,13.39,0,0,1,368.23,107.65Zm23.27,0v-.11a9.89,9.89,0,0,0-9.72-10.21c-5.66,0-9.56,4.6-9.56,10.11v.1c0,5.62,4.15,10.17,9.66,10.17C387.55,117.71,391.5,113.16,391.5,107.65Z" transform="translate(-85.48 -83.67)"/><path class="cls-1" d="M398.37,107.65v-.11a13.64,13.64,0,0,1,27.27-.1v.1a13.58,13.58,0,0,1-13.71,13.66A13.4,13.4,0,0,1,398.37,107.65Zm23.27,0v-.11a9.89,9.89,0,0,0-9.71-10.21c-5.67,0-9.56,4.6-9.56,10.11v.1c0,5.62,4.15,10.17,9.66,10.17C417.7,117.71,421.64,113.16,421.64,107.65Z" transform="translate(-85.48 -83.67)"/><path class="cls-1" d="M428,117.26l2-2.79a15.25,15.25,0,0,0,9.05,3.34c3.14,0,5.41-1.62,5.41-4.15v-.1c0-2.63-3.08-3.64-6.52-4.6-4.1-1.16-8.65-2.58-8.65-7.38v-.1c0-4.51,3.74-7.49,8.9-7.49a17.87,17.87,0,0,1,9.41,2.88l-1.77,2.94A14.78,14.78,0,0,0,438,97.28c-3.09,0-5.06,1.62-5.06,3.79v.1c0,2.48,3.24,3.44,6.73,4.5,4,1.22,8.39,2.79,8.39,7.49v.1c0,5-4.09,7.84-9.3,7.84A18.07,18.07,0,0,1,428,117.26Z" transform="translate(-85.48 -83.67)"/><path class="cls-1" d="M453.66,113.66V97.88H450V94.44h3.64V86.55h3.89v7.89h8.3v3.44h-8.3v15.28c0,3.19,1.77,4.35,4.4,4.35a8.18,8.18,0,0,0,3.8-.91v3.34a9.93,9.93,0,0,1-4.71,1.11C456.85,121.05,453.66,119,453.66,113.66Z" transform="translate(-85.48 -83.67)"/><path class="cls-1" d="M467.82,107.6v-.1c0-7.54,5.31-13.61,12.54-13.61,7.74,0,12.19,6.17,12.19,13.81a10.21,10.21,0,0,1-.05,1.26H471.77c.55,5.67,4.55,8.85,9.2,8.85a10.83,10.83,0,0,0,8.25-3.69l2.42,2.18a13.49,13.49,0,0,1-10.77,4.9C473.69,121.2,467.82,115.69,467.82,107.6Zm20.79-1.52c-.4-4.76-3.14-8.9-8.35-8.9-4.55,0-8,3.79-8.49,8.9Z" transform="translate(-85.48 -83.67)"/><path class="cls-1" d="M496.85,94.44h3.9v6.83c1.92-4.35,5.71-7.48,10.67-7.28v4.2h-.3c-5.72,0-10.37,4.1-10.37,12V120.6h-3.9Z" transform="translate(-85.48 -83.67)"/></svg>